<?xml version="1.0" encoding="utf-8"?>
<!-- Generator: Adobe Illustrator 23.0.3, SVG Export Plug-In . SVG Version: 6.00 Build 0)  -->
<svg version="1.1" id="Capa_1" xmlns="http://www.w3.org/2000/svg" xmlns:xlink="http://www.w3.org/1999/xlink" x="0px" y="0px"
	 viewBox="0 0 15 15" style="enable-background:new 0 0 15 15;" xml:space="preserve">
<style type="text/css">
	.st0{fill:#D9B70D;}
</style>
<path class="st0" d="M7.5,0C3.4,0,0,3.4,0,7.5C0,11.6,3.4,15,7.5,15S15,11.6,15,7.5C15,3.4,11.6,0,7.5,0z M11.7,11.7H3.3
	c-0.4,0-0.7-0.3-0.7-0.7s0.3-0.7,0.7-0.7h8.5c0.4,0,0.7,0.3,0.7,0.7S12.1,11.7,11.7,11.7z M11.7,8.2H3.3c-0.4,0-0.7-0.3-0.7-0.7
	c0-0.4,0.3-0.7,0.7-0.7h8.5c0.4,0,0.7,0.3,0.7,0.7C12.5,7.9,12.1,8.2,11.7,8.2z M11.7,4.7H3.3C2.9,4.7,2.5,4.4,2.5,4
	c0-0.4,0.3-0.7,0.7-0.7h8.5c0.4,0,0.7,0.3,0.7,0.7C12.5,4.4,12.1,4.7,11.7,4.7z"/>
</svg>
