<?xml version="1.0" encoding="utf-8"?>
<!-- Generator: Adobe Illustrator 23.0.3, SVG Export Plug-In . SVG Version: 6.00 Build 0)  -->
<svg version="1.1" id="Capa_1" xmlns="http://www.w3.org/2000/svg" xmlns:xlink="http://www.w3.org/1999/xlink" x="0px" y="0px"
	 viewBox="0 0 15 15" style="enable-background:new 0 0 15 15;" xml:space="preserve">
<style type="text/css">
	.st0{fill:#DB4C2A;}
	.st1{fill:#FFFFFF;}
</style>
<path class="st0" d="M7.5,0C3.4,0,0,3.4,0,7.5C0,11.6,3.4,15,7.5,15S15,11.6,15,7.5C15,3.4,11.6,0,7.5,0z M9.9,8.9
	c0.3,0.3,0.3,0.7,0,1c-0.3,0.3-0.7,0.3-1,0L7.5,8.5L6.1,9.9c-0.3,0.3-0.7,0.3-1,0c-0.3-0.3-0.3-0.7,0-1l1.4-1.4L5.1,6.1
	c-0.2-0.3-0.2-0.7,0-1c0.3-0.3,0.7-0.3,1,0l1.4,1.4l1.4-1.4c0.3-0.3,0.7-0.3,1,0c0.3,0.3,0.3,0.7,0,1L8.5,7.5L9.9,8.9z"/>
<path class="st1" d="M9.9,8.9c0.3,0.3,0.3,0.7,0,1c-0.3,0.3-0.7,0.3-1,0L7.5,8.5L6.1,9.9c-0.3,0.3-0.7,0.3-1,0c-0.3-0.3-0.3-0.7,0-1
	l1.4-1.4L5.1,6.1c-0.2-0.3-0.2-0.7,0-1c0.3-0.3,0.7-0.3,1,0l1.4,1.4l1.4-1.4c0.3-0.3,0.7-0.3,1,0c0.3,0.3,0.3,0.7,0,1L8.5,7.5
	L9.9,8.9z"/>
</svg>
