<?xml version="1.0" encoding="utf-8"?>
<!-- Generator: Adobe Illustrator 23.0.3, SVG Export Plug-In . SVG Version: 6.00 Build 0)  -->
<svg version="1.1" id="Capa_1" xmlns="http://www.w3.org/2000/svg" xmlns:xlink="http://www.w3.org/1999/xlink" x="0px" y="0px"
	 viewBox="0 0 141.7 141.7" style="enable-background:new 0 0 141.7 141.7;" xml:space="preserve">
<style type="text/css">
	.st0{fill:#A7DB5C;}
</style>
<path class="st0" d="M70.9,8.2c-34.7,0-62.7,28-62.7,62.7c0,34.6,28.1,62.7,62.7,62.7s62.7-28.1,62.7-62.7
	C133.6,36.2,105.5,8.2,70.9,8.2z M66,116.2c-0.4,0.3-1,0.2-1.4-0.2c-0.8-0.9-1.6-1.8-2.4-2.6l-2.3-2.7c-1.5-1.8-3.1-3.6-4.6-5.4
	c-3-3.6-6-7.3-9-11c-2.9-3.7-5.9-7.4-8.8-11.1c-2.8-3.7-5.7-7.4-8.4-11.1l0.1,0.1L29,71.9c0,0.1,0.1,0.1,0.1,0.2L29,71.9l-0.2-0.3
	c-0.2-0.2-0.3-0.3-0.5-0.5l-0.4-0.5c-0.1-0.2-0.3-0.3-0.4-0.5c-0.3-0.4-0.5-0.7-0.8-1.1l-0.4-0.5L26,68c-0.9-1.5-1.7-3.1-2.3-4.7
	c-1.2-3.3-1.6-6.9-1.3-10.3c0.3-3.5,1.4-6.9,3.1-9.9c0.9-1.5,1.9-2.9,3.1-4.2s2.5-2.5,3.9-3.5s2.9-1.9,4.5-2.5
	c1.6-0.7,3.3-1.2,5-1.5c3.4-0.7,6.9-0.5,10.2,0.3l1.2,0.3c0.4,0.1,0.8,0.3,1.2,0.4c0.4,0.1,0.8,0.3,1.2,0.5s0.8,0.3,1.2,0.5
	s0.8,0.4,1.1,0.6l1.1,0.7c0.4,0.2,0.7,0.5,1,0.7c0.4,0.2,0.7,0.5,1,0.8c1.3,1.1,2.5,2.2,3.6,3.5c1,1.3,2,2.7,2.7,4.2
	c0.4,0.9,0.1,2-0.8,2.4c-0.8,0.4-1.8,0.1-2.3-0.6l0,0c-1.5-2.4-3.5-4.4-5.8-6s-4.9-2.6-7.5-3.1c-1.3-0.2-2.7-0.4-4-0.3
	c-1.3,0-2.7,0.2-4,0.5c-2.6,0.6-5.1,1.8-7.2,3.4c-4.3,3.2-7,8.2-7.4,13.5c-0.2,2.6,0.1,5.3,1,7.8c0.4,1.2,1,2.4,1.7,3.5l0.3,0.4
	l0.3,0.4c0.2,0.3,0.4,0.5,0.6,0.8c0.1,0.1,0.2,0.3,0.3,0.4l0.3,0.4c0.1,0.1,0.2,0.2,0.3,0.4l0.2,0.2l0.1,0.1l0,0l0,0l0.3,0.3
	c2.8,3.8,5.6,7.6,8.4,11.4s5.5,7.7,8.2,11.5c2.7,3.9,5.4,7.8,8,11.7c1.3,2,2.6,3.9,3.9,5.9l1.9,3c0.6,1,1.3,2,1.9,3
	C66.7,115.2,66.5,115.9,66,116.2z M97.7,92.2c-4.7,14.3-14.3,24.4-26.9,26.3c-2.6,0.4-3.3-3.6-0.6-4c10.5-1.6,18.6-9.8,23-21.6
	c-6.3,3.6-18.7,7.3-28.3-9.6c16.7-9.9,26.2-1.9,30.1,3.2c1-4.2,1.6-8.7,1.7-13.5c0,0-22.3,6.9-26.7-12.5
	c18.3-10.6,26.7,8.9,26.7,8.9c-0.1-2.8-0.7-8.6-0.7-8.8c0,0-19-9.5-10.1-26c21.3,4.1,13.8,25,13.8,25c0.1,0.3,0.6,3.9,0.8,5.4
	c0,0,5.3-15.6,20.9-12.6c2.5,21.9-20.6,20.7-20.6,20.7c-0.1,4.6-0.6,9-1.4,13.1c0,0,11.4-16.9,27.5-7.3
	C121.2,102.6,97.7,92.2,97.7,92.2z"/>
<path d="M-989.1-86.9c-3.2,5-6.8,9.7-10.8,14L-989.1-86.9z"/>
</svg>
